<svg width="160" height="81" viewBox="0 0 160 81" fill="none" xmlns="http://www.w3.org/2000/svg">
<g clip-path="url(#clip0_416_226)">
<path d="M0.0667725 22.3369L9.15745 17.8984V47.8984L17.6875 34.4358L27.5657 34.369L18.4751 48.8476L27.5657 64.1952H17.6875L9.15745 50.2647L9.07735 64.1952H0.0667725V22.3369Z" fill="url(#paint0_linear_416_226)"/>
<path d="M54.2771 40.2914C54.2771 40.2914 52.1412 33.5668 43.9983 34.0347C43.9983 34.0347 38.4719 34.6631 36.1758 36.3342L35.6953 34.4358H28.1931V80.893L37.2838 76.3075V63.3262C37.2838 63.3262 41.2351 64.5962 45.3466 64.5962C49.4581 64.5962 54.1169 62.9385 54.6775 57.6711C55.2382 52.4037 55.385 43.3797 54.2771 40.2914ZM45.8939 53.1123C45.8939 55.5722 44.866 55.7995 44.866 55.7995C41.7824 58.1791 37.2838 55.3984 37.2838 55.3984V43.1257C39.5798 41.6283 42.9705 42.0962 42.9705 42.0962C45.6536 42.6444 45.8939 45.1845 45.8939 45.1845C45.8939 45.1845 45.8939 50.6658 45.8939 53.1123Z" fill="url(#paint1_linear_416_226)"/>
<path d="M57.5075 43.9947C57.5075 41.9492 57.4541 40.2915 57.374 38.7808H59.9637L60.1239 41.508H60.1907C61.352 39.5562 63.2609 38.4198 65.864 38.4198C69.7352 38.4198 72.6453 41.6818 72.6453 46.5348C72.6453 52.2968 69.1211 55.1444 65.3834 55.1444C63.2476 55.1444 61.4054 54.2086 60.4576 52.6177H60.3909V61.3209H57.5075V43.9947ZM60.4042 48.2727C60.4042 48.6872 60.4443 49.0882 60.5244 49.4626C61.045 51.4947 62.8071 52.8717 64.8628 52.8717C67.9464 52.8717 69.7219 50.3449 69.7219 46.6685C69.7219 43.4733 68.0532 40.7326 64.983 40.7326C63.0073 40.7326 61.1384 42.1364 60.5911 44.3289C60.4977 44.7032 60.4042 45.131 60.4042 45.5054V48.2727Z" fill="url(#paint2_linear_416_226)"/>
<path d="M74.2606 43.7674C74.2606 41.8824 74.2072 40.2647 74.1271 38.7808H76.6767L76.7835 41.9225H76.8903C77.6379 39.7701 79.3999 38.4198 81.3355 38.4198C81.6559 38.4198 81.8829 38.4332 82.1498 38.5V41.2407C81.8562 41.1738 81.5625 41.1604 81.162 41.1604C79.1196 41.1604 77.6646 42.7112 77.2774 44.877C77.1974 45.2915 77.1573 45.7594 77.1573 46.2407V54.7834H74.2606V43.7674Z" fill="url(#paint3_linear_416_226)"/>
<path d="M84.8329 47.3102C84.8863 51.2407 87.3826 52.8583 90.306 52.8583C92.3885 52.8583 93.6566 52.484 94.7245 52.0428L95.2318 54.115C94.2173 54.5829 92.4418 55.131 89.9055 55.131C84.9931 55.131 82.043 51.8556 82.043 47.0562C82.043 42.2032 84.8997 38.4198 89.5585 38.4198C94.7646 38.4198 96.1262 43.0054 96.1262 45.9465C96.1262 46.5615 96.0861 46.9893 96.0327 47.3102H84.8329ZM93.3362 45.2246C93.3629 43.3931 92.5887 40.5187 89.3315 40.5187C86.3681 40.5187 85.0999 43.2059 84.873 45.2246H93.3362Z" fill="url(#paint4_linear_416_226)"/>
<path d="M97.5679 51.8289C98.449 52.377 99.9707 52.9653 101.412 52.9653C103.535 52.9653 104.523 51.9225 104.523 50.5856C104.523 49.1818 103.682 48.4599 101.559 47.6578C98.6759 46.615 97.3009 45.0374 97.3143 43.1257C97.3143 40.5455 99.4101 38.4332 102.841 38.4332C104.469 38.4332 105.871 38.8743 106.752 39.4225L106.031 41.5348C105.417 41.1471 104.242 40.5989 102.761 40.5989C101.052 40.5989 100.118 41.5882 100.118 42.7915C100.118 44.115 101.052 44.7032 103.148 45.5187C105.898 46.5481 107.326 47.9385 107.339 50.3316C107.339 53.1658 105.137 55.1578 101.359 55.1578C99.6103 55.1578 97.9951 54.7032 96.8738 54.0481L97.5679 51.8289Z" fill="url(#paint5_linear_416_226)"/>
<path d="M109.368 51.8289C110.25 52.377 111.771 52.9653 113.213 52.9653C115.335 52.9653 116.323 51.9225 116.323 50.5856C116.323 49.1818 115.482 48.4599 113.36 47.6578C110.476 46.615 109.101 45.0374 109.115 43.1257C109.115 40.5455 111.211 38.4332 114.641 38.4332C116.27 38.4332 117.672 38.8743 118.553 39.4225L117.832 41.5348C117.218 41.1471 116.043 40.5989 114.561 40.5989C112.853 40.5989 111.918 41.5882 111.918 42.7915C111.918 44.115 112.853 44.7032 114.948 45.5187C117.698 46.5481 119.127 47.9385 119.14 50.3316C119.14 53.1658 116.937 55.1578 113.16 55.1578C111.411 55.1578 109.796 54.7032 108.674 54.0481L109.368 51.8289Z" fill="url(#paint6_linear_416_226)"/>
<path d="M44.0383 72.3636C44.0383 72.3636 53.1424 66.3609 57.374 65.5855C57.374 65.5855 61.8593 63.6203 75.9158 66.8823C89.9723 70.1444 103.615 68.2326 103.615 68.2326C103.615 68.2326 110.383 67.1497 111.464 66.6283C111.464 66.6283 100.611 71.4946 82.7905 69.8369C82.7905 69.8369 79.253 69.5294 77.3708 69.1149C77.3708 69.1149 65.0096 66.3743 59.5365 67.0428C54.0634 67.7112 44.0383 72.3636 44.0383 72.3636Z" fill="#73A92E"/>
<path d="M120.875 51.4545C120.875 51.4545 117.498 42.1898 125.868 34.0615L124.613 40.5054C124.613 40.5054 129.859 24.6765 136.106 20.1711C136.106 20.1711 137.722 19.1685 136.934 21.6952C136.934 21.6952 137.361 21.6016 137.615 19.984C137.615 19.984 137.588 16.0669 140.685 12.7647C140.685 12.7647 148.294 4.68985 154.101 1.98931C159.908 -0.724589 158.907 3.09894 158.907 3.09894C158.907 3.09894 158.106 14.9572 149.789 24.2219L144.45 29.2754L145.611 28.5401C145.611 28.5401 147.466 27.4305 146.665 29.4759C146.665 29.4759 144.797 32.992 143.769 34.1283C142.741 35.2647 136.694 41.9492 131.995 45.3182C131.995 45.3182 133.477 44.9439 136.106 42.4706C136.106 42.4706 138.616 40.0642 137.174 43.0989C137.174 43.0989 133.89 49.369 128.07 52.016C128.07 52.016 125.694 53.607 123.104 53.3396L112.132 66.1604L145.998 16.869L120.875 51.4545Z" fill="url(#paint7_linear_416_226)"/>
<path d="M41.4887 79.4091V77.6578L39.9669 75.238H40.9547L41.9292 76.8824L42.8904 75.238H43.8648L42.3297 77.6578V79.4091H41.4887Z" fill="#F08210"/>
<path d="M44.2252 77.3503C44.2252 76.9225 44.292 76.5749 44.4121 76.2808C44.5056 76.0669 44.639 75.8797 44.7992 75.7059C44.9594 75.5321 45.1463 75.4118 45.3332 75.3316C45.5868 75.2246 45.8938 75.1711 46.2276 75.1711C46.8416 75.1711 47.3355 75.3583 47.696 75.746C48.0564 76.1337 48.2433 76.6551 48.2433 77.3369C48.2433 78.0054 48.0564 78.5401 47.696 78.9145C47.3355 79.2888 46.8416 79.4893 46.2276 79.4893C45.6135 79.4893 45.1196 79.3022 44.7458 78.9278C44.4121 78.5268 44.2252 78.0054 44.2252 77.3503ZM45.0929 77.3102C45.0929 77.7781 45.1997 78.1391 45.4133 78.3797C45.6269 78.6203 45.9072 78.7407 46.2409 78.7407C46.5746 78.7407 46.855 78.6203 47.0686 78.3797C47.2821 78.1391 47.3889 77.7781 47.3889 77.2968C47.3889 76.8155 47.2821 76.4679 47.0686 76.2273C46.855 75.9867 46.588 75.8797 46.2409 75.8797C45.8938 75.8797 45.6135 76 45.3999 76.2407C45.1997 76.4813 45.0929 76.8423 45.0929 77.3102Z" fill="#F08210"/>
<path d="M49.0309 75.238H49.8719V77.4973C49.8719 77.8583 49.8853 78.0856 49.8986 78.1925C49.9387 78.3663 50.0188 78.5 50.1522 78.607C50.2857 78.7139 50.4726 78.7674 50.7129 78.7674C50.9532 78.7674 51.1267 78.7139 51.2469 78.6203C51.367 78.5267 51.4471 78.4064 51.4604 78.2594C51.4871 78.1123 51.5005 77.885 51.5005 77.5508V75.238H52.3415V77.4305C52.3415 77.9251 52.3148 78.2861 52.2747 78.4866C52.2347 78.6872 52.1412 78.8743 52.0211 79.008C51.901 79.1551 51.7408 79.262 51.5272 79.3423C51.327 79.4225 51.06 79.4626 50.7262 79.4626C50.3258 79.4626 50.0321 79.4225 49.8185 79.3289C49.6183 79.2353 49.4447 79.115 49.338 78.9679C49.2178 78.8209 49.1377 78.6604 49.0977 78.5C49.0443 78.2594 49.0176 77.9118 49.0176 77.4439V75.238H49.0309Z" fill="#F08210"/>
<path d="M53.356 79.4091V75.238H55.1314C55.5719 75.238 55.9056 75.2781 56.1058 75.3449C56.3061 75.4118 56.4663 75.5588 56.5864 75.746C56.7066 75.9332 56.7733 76.1604 56.7733 76.4011C56.7733 76.7086 56.6799 76.9759 56.493 77.1765C56.3061 77.377 56.0391 77.5107 55.6653 77.5642C55.8522 77.6711 55.9991 77.7915 56.1192 77.9118C56.2393 78.0455 56.3995 78.2594 56.5998 78.5936L57.107 79.4091H56.1058L55.4918 78.5C55.2782 78.1792 55.1314 77.9652 55.0513 77.885C54.9712 77.8048 54.8911 77.738 54.7976 77.7112C54.7042 77.6845 54.5707 77.6578 54.3705 77.6578H54.1969V79.3957H53.356V79.4091ZM54.1969 77.0027H54.8243C55.2248 77.0027 55.4784 76.9893 55.5852 76.9492C55.692 76.9091 55.7588 76.8556 55.8255 76.7754C55.8789 76.6952 55.9056 76.5882 55.9056 76.4679C55.9056 76.3342 55.8656 76.2139 55.7988 76.1337C55.7187 76.0535 55.6119 75.9866 55.4784 75.9733C55.4117 75.9599 55.2115 75.9599 54.8644 75.9599H54.1969V77.0027Z" fill="#F08210"/>
<path d="M59.3763 79.4091V75.238H60.2173V79.4091H59.3763Z" fill="#F08210"/>
<path d="M61.1517 79.4091V75.238H61.966L63.6747 78.0187V75.238H64.4623V79.4091H63.6213L61.9393 76.6952V79.4091H61.1517Z" fill="#F08210"/>
<path d="M66.518 79.4091L65.0229 75.238H65.9307L66.9853 78.3262L67.9998 75.238H68.8942L67.3991 79.4091H66.518Z" fill="#F08210"/>
<path d="M69.4548 79.4091V75.238H72.5385V75.9465H70.2958V76.869H72.3916V77.5775H70.2958V78.7139H72.6185V79.4225H69.4548V79.4091Z" fill="#F08210"/>
<path d="M73.246 78.0455L74.0603 77.9653C74.1137 78.246 74.2071 78.4466 74.3539 78.5669C74.5008 78.6872 74.701 78.754 74.968 78.754C75.235 78.754 75.4486 78.7006 75.582 78.5802C75.7155 78.4599 75.7823 78.3262 75.7823 78.1792C75.7823 78.0856 75.7556 77.992 75.7022 77.9252C75.6488 77.8583 75.542 77.7915 75.3952 77.738C75.3017 77.6979 75.0748 77.6444 74.7277 77.5508C74.2738 77.4439 73.9668 77.2968 73.7799 77.1364C73.5263 76.9091 73.3928 76.6284 73.3928 76.2941C73.3928 76.0802 73.4596 75.8797 73.5797 75.6925C73.6998 75.5054 73.8734 75.3717 74.1003 75.2647C74.3272 75.1711 74.5942 75.1177 74.9146 75.1177C75.4352 75.1177 75.8357 75.238 76.0893 75.4653C76.3563 75.6925 76.4898 76 76.5031 76.3877L75.6621 76.4278C75.6221 76.2139 75.5553 76.0535 75.4352 75.9599C75.3151 75.8663 75.1415 75.8129 74.9012 75.8129C74.661 75.8129 74.4607 75.8663 74.3272 75.9599C74.2338 76.0268 74.1937 76.107 74.1937 76.2139C74.1937 76.3075 74.2338 76.4011 74.3139 76.4679C74.4207 76.5615 74.6743 76.6551 75.0881 76.7487C75.502 76.8423 75.7956 76.9492 75.9959 77.0428C76.1961 77.1498 76.3429 77.2834 76.4497 77.4706C76.5565 77.6578 76.6099 77.8717 76.6099 78.1391C76.6099 78.3797 76.5432 78.607 76.4097 78.8075C76.2762 79.0214 76.0893 79.1685 75.849 79.2754C75.6087 79.3824 75.3017 79.4225 74.9413 79.4225C74.4207 79.4225 74.0069 79.3022 73.7265 79.0615C73.4462 78.8209 73.2994 78.5134 73.246 78.0455Z" fill="#F08210"/>
<path d="M78.3853 79.4091V75.9465H77.1572V75.238H80.4678V75.9465H79.2397V79.4091H78.3853Z" fill="#F08210"/>
<path d="M81.1085 79.4091V75.238H82.3633L83.1242 78.0856L83.8718 75.238H85.1266V79.4091H84.339V76.1203L83.5113 79.4091H82.6971L81.8694 76.1203V79.4091H81.1085Z" fill="#F08210"/>
<path d="M86.0878 79.4091V75.238H89.1714V75.9465H86.9288V76.869H89.0245V77.5775H86.9288V78.7139H89.2515V79.4225H86.0878V79.4091Z" fill="#F08210"/>
<path d="M90.0924 79.4091V75.238H90.9067L92.6154 78.0187V75.238H93.403V79.4091H92.562L90.88 76.6952V79.4091H90.0924Z" fill="#F08210"/>
<path d="M95.3386 79.4091V75.9465H94.0972V75.238H97.4077V75.9465H96.1796V79.4091H95.3386Z" fill="#F08210"/>
<path d="M99.7838 79.4091V75.238H100.625V79.4091H99.7838Z" fill="#F08210"/>
<path d="M101.546 79.4091V75.238H102.36L104.069 78.0187V75.238H104.856V79.4091H104.015L102.333 76.6952V79.4091H101.546Z" fill="#F08210"/>
<path d="M105.858 79.4091V75.238H108.714V75.9465H106.699V76.9358H108.434V77.6444H106.699V79.4225H105.858V79.4091Z" fill="#F08210"/>
<path d="M109.355 77.3503C109.355 76.9225 109.422 76.5749 109.542 76.2808C109.635 76.0669 109.769 75.8797 109.929 75.7059C110.089 75.5321 110.276 75.4118 110.463 75.3316C110.717 75.2246 111.024 75.1711 111.357 75.1711C111.972 75.1711 112.465 75.3583 112.826 75.746C113.2 76.1337 113.373 76.6551 113.373 77.3369C113.373 78.0054 113.186 78.5401 112.826 78.9145C112.465 79.2888 111.972 79.4893 111.357 79.4893C110.743 79.4893 110.249 79.3022 109.876 78.9278C109.502 78.5535 109.355 78.0054 109.355 77.3503ZM110.223 77.3102C110.223 77.7781 110.33 78.1391 110.543 78.3797C110.757 78.6203 111.037 78.7407 111.371 78.7407C111.705 78.7407 111.985 78.6203 112.198 78.3797C112.412 78.1391 112.519 77.7781 112.519 77.2968C112.519 76.8155 112.412 76.4679 112.198 76.2273C111.985 75.9867 111.705 75.8797 111.371 75.8797C111.024 75.8797 110.743 76 110.53 76.2407C110.33 76.4813 110.223 76.8423 110.223 77.3102Z" fill="#F08210"/>
<path d="M115.896 79.4091V75.238H117.151L117.912 78.0856L118.659 75.238H119.914V79.4091H119.127V76.1203L118.299 79.4091H117.485L116.657 76.1203V79.4091H115.896Z" fill="#F08210"/>
<path d="M120.862 79.4091V75.238H123.946V75.9465H121.703V76.869H123.799V77.5775H121.703V78.7139H124.026V79.4225H120.862V79.4091Z" fill="#F08210"/>
<path d="M124.867 75.238H126.402C126.749 75.238 127.016 75.2647 127.189 75.3182C127.43 75.385 127.643 75.5187 127.817 75.7059C127.99 75.8931 128.124 76.1203 128.217 76.3877C128.311 76.6551 128.351 76.9893 128.351 77.377C128.351 77.7246 128.311 78.0187 128.217 78.2594C128.11 78.5669 127.964 78.8075 127.777 78.9947C127.63 79.1417 127.43 79.2487 127.189 79.3289C127.002 79.3824 126.762 79.4225 126.442 79.4225H124.853V75.238H124.867ZM125.708 75.9332V78.7005H126.335C126.575 78.7005 126.735 78.6872 126.842 78.6604C126.976 78.6203 127.096 78.5669 127.176 78.4866C127.269 78.4064 127.336 78.2727 127.39 78.0856C127.443 77.8984 127.47 77.6444 127.47 77.3235C127.47 77.0027 127.443 76.7487 127.39 76.5749C127.336 76.4011 127.256 76.2674 127.149 76.1738C127.043 76.0802 126.922 76.0134 126.762 75.9733C126.642 75.9465 126.415 75.9332 126.068 75.9332H125.708Z" fill="#F08210"/>
<path d="M129.152 79.4091V75.238H129.993V79.4091H129.152Z" fill="#F08210"/>
<path d="M134.665 79.4091H133.744L133.383 78.4599H131.715L131.368 79.4091H130.473L132.102 75.238H132.996L134.665 79.4091ZM133.116 77.7513L132.542 76.2005L131.982 77.7513H133.116Z" fill="#F08210"/>
<path d="M0.0667725 22.3369L9.15745 17.8984V47.8984L17.6875 34.4358L27.5657 34.369L18.4751 48.8476L27.5657 64.1952H17.6875L9.15745 50.2647L9.07735 64.1952H0.0667725V22.3369Z" stroke="#008D36" stroke-miterlimit="10"/>
<path d="M54.2771 40.2914C54.2771 40.2914 52.1412 33.5668 43.9983 34.0347C43.9983 34.0347 38.4719 34.6631 36.1758 36.3342L35.6953 34.4358H28.1931V80.893L37.2838 76.3075V63.3262C37.2838 63.3262 41.2351 64.5962 45.3466 64.5962C49.4581 64.5962 54.1169 62.9385 54.6775 57.6711C55.2382 52.4037 55.385 43.3797 54.2771 40.2914ZM45.8939 53.1123C45.8939 55.5722 44.866 55.7995 44.866 55.7995C41.7824 58.1791 37.2838 55.3984 37.2838 55.3984V43.1257C39.5798 41.6283 42.9705 42.0962 42.9705 42.0962C45.6536 42.6444 45.8939 45.1845 45.8939 45.1845C45.8939 45.1845 45.8939 50.6658 45.8939 53.1123Z" stroke="#009640" stroke-miterlimit="10"/>
<g opacity="0.27">
<path opacity="0.56" d="M28.1931 46.4679V52.4305C31.5304 52.1631 34.5739 51.5482 37.2838 50.7326V45.853C34.04 46.2941 31.0098 46.4813 28.1931 46.4679Z" fill="white"/>
<path opacity="0.56" d="M52.9022 42.0829C50.3792 42.9385 47.963 43.6471 45.627 44.2219C45.8672 44.7701 45.9073 45.1979 45.9073 45.1979C45.9073 45.1979 45.9073 45.9866 45.9073 47.0829C50.4593 44.5562 52.9022 42.0829 52.9022 42.0829Z" fill="white"/>
<path opacity="0.56" d="M18.4751 48.8476L20.3439 45.8797C17.0868 45.3984 14.2301 44.6497 11.7605 43.7941L9.15745 47.8984V42.7914C3.05695 40.2112 0.0667725 37.2299 0.0667725 37.2299V46.4813C7.60896 50.1444 14.4703 51.8957 20.5842 52.4037L18.4751 48.8476Z" fill="white"/>
</g>
</g>
<defs>
<linearGradient id="paint0_linear_416_226" x1="14.2224" y1="23.1217" x2="13.5334" y2="57.2392" gradientUnits="userSpaceOnUse">
<stop stop-color="#B3CD31"/>
<stop offset="0.3362" stop-color="#95B832"/>
<stop offset="1" stop-color="#488E34"/>
</linearGradient>
<linearGradient id="paint1_linear_416_226" x1="41.5033" y1="36.8494" x2="41.6446" y2="63.79" gradientUnits="userSpaceOnUse">
<stop offset="0.0642938" stop-color="#A1C031"/>
<stop offset="0.7351" stop-color="#649B34"/>
<stop offset="1" stop-color="#488E34"/>
</linearGradient>
<linearGradient id="paint2_linear_416_226" x1="65.0257" y1="50.0146" x2="65.0017" y2="34.7194" gradientUnits="userSpaceOnUse">
<stop stop-color="#575756"/>
<stop offset="1" stop-color="#878787"/>
</linearGradient>
<linearGradient id="paint3_linear_416_226" x1="78.339" y1="52.8852" x2="78.0976" y2="41.4219" gradientUnits="userSpaceOnUse">
<stop stop-color="#575756"/>
<stop offset="1" stop-color="#878787"/>
</linearGradient>
<linearGradient id="paint4_linear_416_226" x1="88.9818" y1="53.6099" x2="89.2019" y2="39.5008" gradientUnits="userSpaceOnUse">
<stop stop-color="#575756"/>
<stop offset="1" stop-color="#878787"/>
</linearGradient>
<linearGradient id="paint5_linear_416_226" x1="102.076" y1="50.3693" x2="101.992" y2="39.8908" gradientUnits="userSpaceOnUse">
<stop stop-color="#575756"/>
<stop offset="1" stop-color="#878787"/>
</linearGradient>
<linearGradient id="paint6_linear_416_226" x1="113.865" y1="50.5585" x2="113.69" y2="40.0811" gradientUnits="userSpaceOnUse">
<stop stop-color="#575756"/>
<stop offset="1" stop-color="#878787"/>
</linearGradient>
<linearGradient id="paint7_linear_416_226" x1="145.362" y1="-0.63118" x2="133.019" y2="44.6449" gradientUnits="userSpaceOnUse">
<stop stop-color="#F08111"/>
<stop offset="0.1515" stop-color="#CC8C1C"/>
<stop offset="0.4981" stop-color="#498E34"/>
<stop offset="0.5004" stop-color="#488E34"/>
<stop offset="1" stop-color="#1A2117"/>
</linearGradient>
<clipPath id="clip0_416_226">
<rect width="159" height="80" fill="white" transform="translate(0 1)"/>
</clipPath>
</defs>
</svg>
