<svg width="160" height="81" viewBox="0 0 160 81" fill="none" xmlns="http://www.w3.org/2000/svg">
<g clip-path="url(#clip0_431_315)">
<g clip-path="url(#clip1_431_315)">
<path d="M-1 22.3655L8.09449 17.921V47.9612L16.6281 34.4806L26.5105 34.4137L17.416 48.9117L26.5105 64.2798H16.6281L8.09449 50.3307L8.01436 64.2798H-1V22.3655Z" fill="white"/>
<path d="M53.2331 40.344C53.2331 40.344 51.0964 33.6104 42.95 34.079C42.95 34.079 37.4212 34.7081 35.1242 36.3815L34.6435 34.4806H27.1382V81L36.2327 76.4083V63.4096C36.2327 63.4096 40.1856 64.6814 44.2989 64.6814C48.4121 64.6814 53.0728 63.0214 53.6337 57.747C54.1946 52.4725 54.3415 43.4364 53.2331 40.344ZM44.8464 53.182C44.8464 55.6452 43.8181 55.8728 43.8181 55.8728C40.7332 58.2557 36.2327 55.4712 36.2327 55.4712V43.182C38.5297 41.6827 41.9217 42.1513 41.9217 42.1513C44.606 42.7001 44.8464 45.2436 44.8464 45.2436C44.8464 45.2436 44.8464 50.7322 44.8464 53.182Z" fill="white"/>
<path d="M56.4648 44.0522C56.4648 42.004 56.4114 40.344 56.3313 38.8313H58.9221L59.0823 41.5622H59.1491C60.311 39.6077 62.2207 38.4698 64.8248 38.4698C68.6977 38.4698 71.609 41.7362 71.609 46.5957C71.609 52.3654 68.0834 55.2168 64.3441 55.2168C62.2073 55.2168 60.3644 54.2798 59.4162 52.6867H59.3628V61.4016H56.4782V44.0522H56.4648ZM59.3628 48.336C59.3628 48.751 59.4029 49.1526 59.483 49.5274C60.0038 51.5622 61.7666 52.9411 63.8232 52.9411C66.9082 52.9411 68.6843 50.4109 68.6843 46.7296C68.6843 43.5301 67.015 40.7858 63.9434 40.7858C61.9669 40.7858 60.0973 42.1914 59.5498 44.3869C59.4563 44.7617 59.3628 45.1901 59.3628 45.5649V48.336Z" fill="white"/>
<path d="M73.225 43.8246C73.225 41.9371 73.1716 40.3172 73.0914 38.8313H75.6422L75.749 41.9772H75.8558C76.6037 39.8219 78.3665 38.4698 80.3029 38.4698C80.6234 38.4698 80.8505 38.4832 81.1176 38.5502V41.2945C80.8238 41.2275 80.53 41.2142 80.1293 41.2142C78.0861 41.2142 76.6304 42.767 76.2431 44.9357C76.163 45.3507 76.1229 45.8192 76.1229 46.3012V54.8554H73.225V43.8246Z" fill="white"/>
<path d="M83.8017 47.3721C83.8552 51.3079 86.3525 52.9277 89.2771 52.9277C91.3604 52.9277 92.6291 52.5528 93.6975 52.1111L94.205 54.186C93.19 54.6546 91.4139 55.2034 88.8765 55.2034C83.962 55.2034 81.0106 51.9237 81.0106 47.1178C81.0106 42.2583 83.8685 38.4698 88.5293 38.4698C93.7376 38.4698 95.0997 43.0616 95.0997 46.0067C95.0997 46.6225 95.0597 47.0508 95.0063 47.3721H83.8017ZM92.3086 45.2838C92.3353 43.4498 91.5608 40.5716 88.3022 40.5716C85.3375 40.5716 84.0688 43.2624 83.8418 45.2838H92.3086Z" fill="white"/>
<path d="M96.5421 51.8969C97.4235 52.4458 98.9459 53.0348 100.388 53.0348C102.512 53.0348 103.5 51.9906 103.5 50.6519C103.5 49.2463 102.659 48.5234 100.535 47.7202C97.6505 46.676 96.275 45.0964 96.2884 43.1821C96.2884 40.5984 98.385 38.4833 101.817 38.4833C103.446 38.4833 104.849 38.925 105.73 39.4739L105.009 41.589C104.395 41.2008 103.219 40.652 101.737 40.652C100.028 40.652 99.0928 41.6426 99.0928 42.8474C99.0928 44.1727 100.028 44.7617 102.124 45.5783C104.875 46.6091 106.304 48.0013 106.318 50.3976C106.318 53.2356 104.114 55.2303 100.335 55.2303C98.5853 55.2303 96.9694 54.7751 95.8477 54.1192L96.5421 51.8969Z" fill="white"/>
<path d="M108.348 51.8969C109.229 52.4458 110.751 53.0348 112.194 53.0348C114.317 53.0348 115.305 51.9906 115.305 50.6519C115.305 49.2463 114.464 48.5234 112.341 47.7202C109.456 46.676 108.08 45.0964 108.094 43.1821C108.094 40.5984 110.19 38.4833 113.623 38.4833C115.252 38.4833 116.654 38.925 117.535 39.4739L116.814 41.589C116.2 41.2008 115.025 40.652 113.542 40.652C111.833 40.652 110.898 41.6426 110.898 42.8474C110.898 44.1727 111.833 44.7617 113.93 45.5783C116.681 46.6091 118.11 48.0013 118.123 50.3976C118.123 53.2356 115.92 55.2303 112.14 55.2303C110.391 55.2303 108.775 54.7751 107.653 54.1192L108.348 51.8969Z" fill="white"/>
<path d="M42.9901 72.4592C42.9901 72.4592 52.098 66.4485 56.3314 65.672C56.3314 65.672 60.8185 63.7041 74.8809 66.9705C88.9433 70.2369 102.592 68.3226 102.592 68.3226C102.592 68.3226 109.363 67.2383 110.444 66.7162C110.444 66.7162 99.587 71.589 81.7586 69.929C81.7586 69.929 78.2196 69.6211 76.3366 69.2061C76.3366 69.2061 63.9702 66.4618 58.4948 67.1312C53.0194 67.8005 42.9901 72.4592 42.9901 72.4592Z" fill="white"/>
<path d="M119.859 51.5219C119.859 51.5219 116.481 42.2448 124.854 34.1056L123.599 40.558C123.599 40.558 128.847 24.708 135.097 20.1966C135.097 20.1966 136.713 19.1926 135.925 21.7227C135.925 21.7227 136.352 21.629 136.606 20.0092C136.606 20.0092 136.579 16.0868 139.678 12.7803C139.678 12.7803 147.29 4.69458 153.099 1.99043C158.908 -0.727103 157.907 3.10154 157.907 3.10154C157.907 3.10154 157.105 14.9757 148.785 24.2528L143.443 29.3131L144.605 28.5768C144.605 28.5768 146.462 27.4657 145.66 29.5139C145.66 29.5139 143.791 33.0346 142.762 34.1725C141.734 35.3104 135.684 42.0038 130.984 45.3773C130.984 45.3773 132.466 45.0025 135.097 42.5259C135.097 42.5259 137.608 40.1163 136.165 43.1551C136.165 43.1551 132.88 49.4335 127.057 52.0841C127.057 52.0841 124.68 53.6772 122.089 53.4094L111.099 66.2742L144.979 16.9168L119.859 51.5219Z" fill="white"/>
<path d="M40.4394 79.514V77.7604L38.917 75.3373H39.9052L40.8801 76.9839L41.8417 75.3373H42.8165L41.2808 77.7604V79.514H40.4394Z" fill="white"/>
<path d="M43.1771 77.4524C43.1771 77.0241 43.2439 76.676 43.3641 76.3815C43.4576 76.1673 43.5911 75.9799 43.7514 75.8059C43.9116 75.6318 44.0986 75.5114 44.2856 75.431C44.5393 75.3239 44.8465 75.2704 45.1803 75.2704C45.7946 75.2704 46.2887 75.4578 46.6493 75.846C47.0099 76.2342 47.1969 76.7563 47.1969 77.4391C47.1969 78.1084 47.0099 78.6439 46.6493 79.0187C46.2887 79.3935 45.7946 79.5943 45.1803 79.5943C44.566 79.5943 44.0719 79.4069 43.698 79.0321C43.3641 78.6305 43.1771 78.1084 43.1771 77.4524ZM44.0452 77.4123C44.0452 77.8808 44.152 78.2423 44.3657 78.4832C44.5794 78.7242 44.8598 78.8447 45.1937 78.8447C45.5275 78.8447 45.808 78.7242 46.0217 78.4832C46.2353 78.2423 46.3422 77.8808 46.3422 77.3989C46.3422 76.917 46.2353 76.5689 46.0217 76.328C45.808 76.087 45.5409 75.9799 45.1937 75.9799C44.8465 75.9799 44.566 76.1004 44.3523 76.3413C44.152 76.5823 44.0452 76.9437 44.0452 77.4123Z" fill="white"/>
<path d="M47.9848 75.3373H48.8261V77.5997C48.8261 77.9612 48.8395 78.1888 48.8528 78.2958C48.8929 78.4699 48.973 78.6037 49.1066 78.7108C49.2401 78.8179 49.4271 78.8715 49.6675 78.8715C49.9079 78.8715 50.0815 78.8179 50.2017 78.7242C50.3218 78.6305 50.402 78.51 50.4153 78.3628C50.442 78.2155 50.4554 77.9879 50.4554 77.6533V75.3373H51.2967V77.5328C51.2967 78.0281 51.27 78.3895 51.23 78.5904C51.1899 78.7912 51.0964 78.9786 50.9762 79.1124C50.856 79.2597 50.6958 79.3668 50.4821 79.4471C50.2818 79.5274 50.0147 79.5676 49.6808 79.5676C49.2802 79.5676 48.9864 79.5274 48.7727 79.4337C48.5724 79.34 48.3988 79.2195 48.2919 79.0723C48.1718 78.925 48.0916 78.7644 48.0516 78.6037C47.9981 78.3628 47.9714 78.0147 47.9714 77.5462V75.3373H47.9848Z" fill="white"/>
<path d="M52.3116 79.514V75.3373H54.0878C54.5285 75.3373 54.8624 75.3775 55.0627 75.4444C55.263 75.5114 55.4233 75.6586 55.5435 75.846C55.6637 76.0335 55.7304 76.261 55.7304 76.502C55.7304 76.8099 55.6369 77.0776 55.45 77.2784C55.263 77.4792 54.9959 77.6131 54.622 77.6667C54.809 77.7738 54.9559 77.8942 55.076 78.0147C55.1962 78.1486 55.3565 78.3628 55.5568 78.6975L56.0643 79.514H55.0627L54.4484 78.6037C54.2347 78.2825 54.0878 78.0683 54.0077 77.9879C53.9276 77.9076 53.8474 77.8407 53.7539 77.8139C53.6605 77.7871 53.5269 77.7604 53.3266 77.7604H53.153V79.5007H52.3116V79.514ZM53.153 77.1044H53.7807C54.1813 77.1044 54.435 77.091 54.5419 77.0509C54.6487 77.0107 54.7155 76.9572 54.7822 76.8768C54.8357 76.7965 54.8624 76.6894 54.8624 76.5689C54.8624 76.4351 54.8223 76.3146 54.7555 76.2343C54.6754 76.1539 54.5686 76.087 54.435 76.0736C54.3683 76.0602 54.1679 76.0602 53.8207 76.0602H53.1663V77.1044H53.153Z" fill="white"/>
<path d="M58.3346 79.514V75.3373H59.1759V79.514H58.3346Z" fill="white"/>
<path d="M60.1107 79.514V75.3373H60.9253L62.6347 78.1218V75.3373H63.4227V79.514H62.568L60.8853 76.7965V79.514H60.1107Z" fill="white"/>
<path d="M65.4794 79.514L63.9836 75.3373H64.8918L65.9468 78.4297L66.9617 75.3373H67.8565L66.3608 79.514H65.4794Z" fill="white"/>
<path d="M68.4174 79.5141V75.3373H71.5023V76.0468H69.2587V76.9705H71.3554V77.68H69.2587V78.8179H71.5824V79.5274H68.4174V79.5141Z" fill="white"/>
<path d="M72.2101 78.1486L73.0247 78.0683C73.0781 78.3494 73.1716 78.5502 73.3185 78.6707C73.4654 78.7912 73.6657 78.8581 73.9328 78.8581C74.1999 78.8581 74.4136 78.8045 74.5471 78.6841C74.6807 78.5636 74.7475 78.4297 74.7475 78.2824C74.7475 78.1887 74.7207 78.095 74.6673 78.0281C74.6139 77.9612 74.5071 77.8942 74.3602 77.8407C74.2667 77.8005 74.0397 77.747 73.6924 77.6533C73.2384 77.5462 72.9312 77.3989 72.7443 77.2383C72.4905 77.0107 72.357 76.7296 72.357 76.3949C72.357 76.1807 72.4238 75.9799 72.5439 75.7925C72.6641 75.6051 72.8377 75.4712 73.0648 75.3641C73.2918 75.2704 73.5589 75.2169 73.8794 75.2169C74.4002 75.2169 74.8009 75.3373 75.0546 75.5649C75.3217 75.7925 75.4552 76.1004 75.4686 76.4886L74.6273 76.5288C74.5872 76.3146 74.5204 76.1539 74.4002 76.0602C74.28 75.9665 74.1064 75.913 73.866 75.913C73.6257 75.913 73.4253 75.9665 73.2918 76.0602C73.1983 76.1272 73.1583 76.2075 73.1583 76.3146C73.1583 76.4083 73.1983 76.502 73.2785 76.5689C73.3853 76.6626 73.639 76.7563 74.053 76.8501C74.467 76.9438 74.7608 77.0509 74.9611 77.1446C75.1614 77.2517 75.3084 77.3855 75.4152 77.5729C75.522 77.7604 75.5754 77.9746 75.5754 78.2423C75.5754 78.4833 75.5087 78.7108 75.3751 78.9116C75.2416 79.1258 75.0546 79.2731 74.8142 79.3802C74.5738 79.4873 74.2667 79.5274 73.9061 79.5274C73.3853 79.5274 72.9713 79.407 72.6908 79.166C72.4104 78.925 72.2635 78.6171 72.2101 78.1486Z" fill="white"/>
<path d="M77.3516 79.514V76.0468H76.1096V75.3373H79.4216V76.0468H78.1929V79.514H77.3516Z" fill="white"/>
<path d="M80.0759 79.514V75.3373H81.3313L82.0925 78.1887L82.8403 75.3373H84.0957V79.514H83.3077V76.2209L82.4798 79.514H81.6651L80.8371 76.2209V79.514H80.0759Z" fill="white"/>
<path d="M85.0571 79.5141V75.3373H88.142V76.0468H85.8985V76.9705H87.9951V77.68H85.8985V78.8179H88.2222V79.5274H85.0571V79.5141Z" fill="white"/>
<path d="M89.0636 79.514V75.3373H89.8782L91.5876 78.1218V75.3373H92.3755V79.514H91.5342L89.8515 76.7965V79.514H89.0636Z" fill="white"/>
<path d="M94.3119 79.514V76.0468H93.0699V75.3373H96.3819V76.0468H95.1533V79.514H94.3119Z" fill="white"/>
<path d="M98.759 79.514V75.3373H99.6004V79.514H98.759Z" fill="white"/>
<path d="M100.522 79.514V75.3373H101.336L103.046 78.1218V75.3373H103.834V79.514H102.992L101.31 76.7965V79.514H100.522Z" fill="white"/>
<path d="M104.835 79.5141V75.3373H107.693V76.0468H105.677V77.0375H107.413V77.747H105.677V79.5274H104.835V79.5141Z" fill="white"/>
<path d="M108.334 77.4524C108.334 77.0241 108.401 76.676 108.521 76.3815C108.615 76.1673 108.748 75.9799 108.908 75.8059C109.069 75.6318 109.256 75.5114 109.443 75.431C109.696 75.3239 110.004 75.2704 110.337 75.2704C110.952 75.2704 111.446 75.4578 111.806 75.846C112.18 76.2342 112.354 76.7563 112.354 77.4391C112.354 78.1084 112.167 78.6439 111.806 79.0187C111.446 79.3935 110.952 79.5943 110.337 79.5943C109.723 79.5943 109.229 79.4069 108.855 79.0321C108.481 78.6573 108.334 78.1084 108.334 77.4524ZM109.202 77.4123C109.202 77.8808 109.309 78.2423 109.523 78.4832C109.736 78.7242 110.017 78.8447 110.351 78.8447C110.685 78.8447 110.965 78.7242 111.179 78.4832C111.392 78.2423 111.499 77.8808 111.499 77.3989C111.499 76.917 111.392 76.5689 111.179 76.328C110.965 76.087 110.685 75.9799 110.351 75.9799C110.004 75.9799 109.723 76.1004 109.509 76.3413C109.309 76.5823 109.202 76.9437 109.202 77.4123Z" fill="white"/>
<path d="M114.878 79.514V75.3373H116.133L116.895 78.1887L117.642 75.3373H118.898V79.514H118.11V76.2209L117.282 79.514H116.467L115.639 76.2209V79.514H114.878Z" fill="white"/>
<path d="M119.846 79.5141V75.3373H122.931V76.0468H120.687V76.9705H122.784V77.68H120.687V78.8179H123.011V79.5274H119.846V79.5141Z" fill="white"/>
<path d="M123.852 75.3373H125.388C125.735 75.3373 126.002 75.3641 126.176 75.4177C126.416 75.4846 126.63 75.6185 126.804 75.8059C126.977 75.9933 127.111 76.2209 127.204 76.4886C127.298 76.7564 127.338 77.091 127.338 77.4792C127.338 77.8273 127.298 78.1218 127.204 78.3628C127.098 78.6707 126.951 78.9116 126.764 79.0991C126.617 79.2463 126.416 79.3534 126.176 79.4337C125.989 79.4873 125.749 79.5274 125.428 79.5274H123.839V75.3373H123.852ZM124.694 76.0335V78.8045H125.321C125.562 78.8045 125.722 78.7912 125.829 78.7644C125.962 78.7242 126.083 78.6707 126.163 78.5904C126.256 78.51 126.323 78.3762 126.376 78.1887C126.43 78.0013 126.456 77.747 126.456 77.4257C126.456 77.1044 126.43 76.8501 126.376 76.676C126.323 76.502 126.243 76.3681 126.136 76.2744C126.029 76.1807 125.909 76.1138 125.749 76.0736C125.629 76.0468 125.401 76.0335 125.054 76.0335H124.694Z" fill="white"/>
<path d="M128.139 79.514V75.3373H128.98V79.514H128.139Z" fill="white"/>
<path d="M133.655 79.514H132.733L132.373 78.5636H130.703L130.356 79.514H129.475L131.104 75.3373H131.999L133.655 79.514ZM132.105 77.8541L131.531 76.3012L130.97 77.8541H132.105Z" fill="white"/>
</g>
</g>
<defs>
<clipPath id="clip0_431_315">
<rect width="160" height="81" fill="white"/>
</clipPath>
<clipPath id="clip1_431_315">
<rect width="159" height="80" fill="white" transform="translate(-1 1)"/>
</clipPath>
</defs>
</svg>
